<svg xmlns="http://www.w3.org/2000/svg" viewBox="0 0 192 192">
  <path fill="#fafafa" d="M0 0h192v192H0z" />
  <path fill="#3d3d3d" d="m126.205 111.403 3.697-9.313h10.677l-5.067-14.128L141.85 72 160 120h-13.386l-3.101-8.597h-17.308z"/>
  <path fill="#5a0fc8" d="m114.785 120 19.43-48h-12.881l-13.292 31.019L98.59 72h-9.902L78.54 103.02l-7.157-14.135-6.477 19.875L71.482 120h12.677l9.171-27.817L102.074 120z"/>
  <path fill="#3d3d3d" d="M44 103.522h8.163c2.403 0 4.543-.267 6.42-.801l2.052-6.297 5.735-17.598a14.067 14.067 0 0 0-1.496-1.957C61.929 73.623 57.62 72 51.949 72H32v48h12Zm10.73-20.48c1.15 1.154 1.726 2.697 1.726 4.63 0 1.947-.506 3.492-1.517 4.634-1.11 1.269-3.151 1.903-6.126 1.903H44V81.313h4.847c2.772 0 4.734.577 5.884 1.73z"/>
</svg>
