<svg xmlns="http://www.w3.org/2000/svg" viewBox="0 0 512 512">
  <path fill="#fff" d="M0 0h512v512H0z" />
  <path fill="#3d3d3d" d="m336.546 297.24 9.86-24.936h28.471l-13.511-37.826 16.898-42.735 48.403 128.514h-35.695l-8.271-23.018h-46.155z"/>
  <path fill="#5a0fc8" d="m306.093 320.256 51.816-128.512h-34.352l-35.445 83.048-25.205-83.048h-26.404l-27.064 83.048-19.085-37.844-17.272 53.212 17.536 30.096h33.806l24.456-74.476 23.318 74.476z"/>
  <path fill="#3d3d3d" d="M117.941 276.14h21.16c6.409 0 12.116-.715 17.121-2.146l5.472-16.858 15.294-47.116a37.645 37.645 0 0 0-3.991-5.24c-7.853-8.69-19.341-13.036-34.466-13.036H85.333v128.512h32.608zm28.007-54.83c3.067 3.086 4.6 7.217 4.6 12.392 0 5.215-1.348 9.35-4.045 12.408-2.957 3.396-8.402 5.095-16.334 5.095h-12.228v-34.526h12.318c7.393 0 12.622 1.543 15.69 4.63z"/>
</svg>
