<svg xmlns="http://www.w3.org/2000/svg" viewBox="0 0 96 33.132">
  <path fill="#3d3d3d" d="m70.653 27.198 2.774-6.429h8.007l-3.8-9.751L82.387 0 96 33.132H85.96l-2.325-5.934H70.653z"/>
  <path fill="#5a0fc8" d="M62.089 33.132 76.662 0H67l-9.969 21.41L49.943 0h-7.427l-7.611 21.41-5.368-9.756-4.858 13.719 4.932 7.76h9.508l6.879-19.202 6.558 19.201z"/>
  <path fill="#3d3d3d" d="M9.171 21.759h5.95c1.804 0 3.409-.185 4.817-.554l1.539-4.346 4.3-12.147a9.845 9.845 0 0 0-1.122-1.35C22.447 1.12 19.215 0 14.962 0H0v33.132h9.171Zm7.877-14.137c.863.796 1.294 1.861 1.294 3.195 0 1.345-.38 2.411-1.138 3.2-.832.875-2.363 1.313-4.594 1.313H9.171V6.429h3.464c2.08 0 3.55.398 4.413 1.193z"/>
</svg>
