<?xml version="1.0" encoding="UTF-8" standalone="no"?>
<svg
   viewBox="0 0 180 180"
   version="1.1"
   id="svg8"
   sodipodi:docname="pwa_master.svg"
   width="180"
   height="180"
   inkscape:version="1.2.2 (732a01da63, 2022-12-09)"
   inkscape:export-filename="apple-touch-icon.png"
   inkscape:export-xdpi="96"
   inkscape:export-ydpi="96"
   xmlns:inkscape="http://www.inkscape.org/namespaces/inkscape"
   xmlns:sodipodi="http://sodipodi.sourceforge.net/DTD/sodipodi-0.dtd"
   xmlns="http://www.w3.org/2000/svg"
   xmlns:svg="http://www.w3.org/2000/svg">
  <defs
     id="defs12" />
  <sodipodi:namedview
     id="namedview10"
     pagecolor="#ffffff"
     bordercolor="#999999"
     borderopacity="1"
     inkscape:showpageshadow="0"
     inkscape:pageopacity="0"
     inkscape:pagecheckerboard="0"
     inkscape:deskcolor="#d1d1d1"
     showgrid="true"
     inkscape:zoom="0.70710678"
     inkscape:cx="-144.95689"
     inkscape:cy="301.9346"
     inkscape:window-width="2400"
     inkscape:window-height="1271"
     inkscape:window-x="-9"
     inkscape:window-y="-9"
     inkscape:window-maximized="1"
     inkscape:current-layer="svg8">
    <inkscape:grid
       type="xygrid"
       id="grid368"
       originx="-31.999999"
       originy="-72" />
  </sodipodi:namedview>
  <rect
     style="fill:#fafafa;stroke-width:0;paint-order:markers fill stroke"
     id="rect418-1"
     width="512"
     height="512"
     x="-848"
     y="152" />
  <circle
     style="fill:#90a4ae;stroke-width:0;paint-order:markers fill stroke"
     id="circle420-6"
     cx="-592"
     cy="408"
     r="204.80002" />
  <g
     id="g475"
     transform="translate(-31.999999,-72)">
    <path
       fill="#3d3d3d"
       d="m -479.76906,521.07462 9.82203,-24.8358 h 28.36004 L -455.0459,458.56426 -438.21311,416 -390,544 h -35.55543 l -8.23873,-22.9252 h -45.9749 z"
       id="path422-4"
       style="stroke-width:0.999996" />
    <path
       fill="#5a0fc8"
       d="m -510.10256,543.99992 51.61311,-127.99983 h -34.21772 l -35.30635,82.7165 -25.10636,-82.71633 h -26.3014 l -26.95754,82.71633 -19.01109,-37.69216 -17.20431,52.99885 17.4675,29.97664 h 33.67445 l 24.36035,-74.17875 23.22624,74.17875 z"
       id="path424-8"
       style="stroke-width:0.999996" />
    <path
       fill="#3d3d3d"
       d="m -698,500.05975 h 21.55679 c 6.38441,0 12.06948,-0.71251 17.05522,-2.13753 l 5.45062,-16.79093 15.23364,-46.92814 c -1.16074,-1.83971 -2.4859,-3.5791 -3.97549,-5.21799 -7.82157,-8.65654 -19.26522,-12.98507 -34.33129,-12.98507 H -730 v 127.99983 h 32 z m 28.37822,-54.61197 c 3.05512,3.07455 4.58251,7.18885 4.58251,12.34327 0,5.19396 -1.34346,9.31332 -4.03019,12.35808 -2.94539,3.38316 -8.36884,5.07465 -16.27001,5.07465 H -698 v -34.38807 h 12.75006 c 7.36382,0 12.57321,1.53736 15.62816,4.61207 z"
       id="path426-0"
       style="stroke-width:0.999996"
       sodipodi:nodetypes="csccccscccccscsccsc" />
  </g>
  <rect
     style="fill:#fafafa;stroke-width:0;paint-order:markers fill stroke"
     id="rect507"
     width="192"
     height="192"
     x="-711.48169"
     y="-80.096169" />
  <circle
     style="fill:#90a4ae;stroke-width:0;paint-order:markers fill stroke"
     id="circle509"
     cx="-615.48169"
     cy="15.903831"
     r="76.800003" />
  <g
     id="g517"
     transform="matrix(1.3333333,0,0,1.3333333,-679.48171,-48.096163)"
     style="stroke-width:0.749997">
    <path
       fill="#3d3d3d"
       d="m 70.653446,59.598541 2.773278,-7.013066 h 8.007542 L 77.634102,41.947032 82.386889,29.927851 96.000004,66.072148 H 85.960823 L 83.634594,59.59859 H 70.653446 Z"
       id="path511"
       style="stroke-width:0.749997" />
    <path
       fill="#5a0fc8"
       d="M 62.088691,66.072124 76.661807,29.927876 H 67.000331 L 57.031478,53.28514 49.942625,29.927925 H 42.516346 L 34.904805,53.28514 29.536968,42.641729 24.67928,57.607402 l 4.932,8.464722 h 9.508082 l 6.878214,-20.946395 6.558,20.946395 z"
       id="path513"
       style="stroke-width:0.749997" />
    <path
       fill="#3d3d3d"
       d="m 9.1709512,53.664418 h 5.9509678 c 1.802656,0 3.407852,-0.201196 4.81559,-0.60359 l 1.539,-4.741377 4.301263,-13.251443 C 25.450034,34.548516 25.07587,34.057352 24.65528,33.594565 22.446837,31.150155 19.215689,29.927876 14.961738,29.927876 H 0 V 66.072124 H 9.1709512 Z M 17.047968,38.243237 c 0.862623,0.868181 1.293885,2.029967 1.293885,3.485459 0,1.466656 -0.379328,2.629869 -1.137934,3.48964 -0.83164,0.955328 -2.362968,1.432967 -4.593886,1.432967 H 9.1709512 v -9.71041 h 3.4643608 c 2.079197,0 3.550082,0.434115 4.412656,1.302344 z"
       id="path515"
       style="stroke-width:0.749997" />
  </g>
  <rect
     style="fill:#fafafa;stroke-width:0;paint-order:markers fill stroke"
     id="rect519"
     width="192"
     height="192"
     x="-711.48169"
     y="-80.096169" />
  <circle
     style="fill:#90a4ae;stroke-width:0;paint-order:markers fill stroke"
     id="circle521"
     cx="-615.48169"
     cy="15.903831"
     r="76.800003" />
  <g
     id="g480"
     transform="translate(-711.4817,-80.096165)">
    <path
       fill="#3d3d3d"
       d="m 126.20459,111.40298 3.69771,-9.31342 h 10.67672 L 135.51213,87.961597 141.84918,72 160,120 h -13.38557 l -3.10164,-8.59695 h -17.3082 z"
       id="path523"
       style="stroke-width:0.999997" />
    <path
       fill="#5a0fc8"
       d="m 114.78492,119.99997 19.43082,-47.999936 h -12.88197 l -13.2918,31.018686 -9.451806,-31.018621 h -9.901705 l -10.148721,31.018621 -7.157116,-14.134559 -6.476917,19.874569 6.576,11.24124 h 12.677442 l 9.170952,-27.817031 8.744001,27.817031 z"
       id="path525"
       style="stroke-width:0.999997" />
    <path
       fill="#3d3d3d"
       d="m 44,103.52241 h 8.162557 c 2.403541,0 4.543803,-0.26719 6.420787,-0.80158 l 2.052,-6.296595 5.735017,-17.598053 c -0.436984,-0.689891 -0.93587,-1.342162 -1.496656,-1.956748 -2.944591,-3.246201 -7.252788,-4.8694 -12.924722,-4.8694 H 31.999999 V 119.99997 H 44 Z M 54.730622,83.042919 c 1.150164,1.152953 1.72518,2.695817 1.72518,4.628725 0,1.947734 -0.50577,3.492493 -1.517245,4.634278 -1.108853,1.268685 -3.150624,1.902995 -6.125181,1.902995 H 44 V 81.313392 h 4.847081 c 2.772263,0 4.733443,0.57651 5.883541,1.729527 z"
       id="path527"
       style="stroke-width:0.999997"
       sodipodi:nodetypes="csccccscccccscsccsc" />
  </g>
  <g
     id="g488"
     transform="translate(-515.6141,-255.50941)">
    <path
       fill="#3d3d3d"
       d="m 126.20459,111.40298 3.69771,-9.31342 h 10.67672 L 135.51213,87.961597 141.84918,72 160,120 h -13.38557 l -3.10164,-8.59695 h -17.3082 z"
       id="path482"
       style="stroke-width:0.999997" />
    <path
       fill="#5a0fc8"
       d="m 114.78492,119.99997 19.43082,-47.999936 h -12.88197 l -13.2918,31.018686 -9.451806,-31.018621 h -9.901705 l -10.148721,31.018621 -7.157116,-14.134559 -6.476917,19.874569 6.576,11.24124 h 12.677442 l 9.170952,-27.817031 8.744001,27.817031 z"
       id="path484"
       style="stroke-width:0.999997" />
    <path
       fill="#3d3d3d"
       d="m 44,103.52241 h 8.162557 c 2.403541,0 4.543803,-0.26719 6.420787,-0.80158 l 2.052,-6.296595 5.735017,-17.598053 c -0.436984,-0.689891 -0.93587,-1.342162 -1.496656,-1.956748 -2.944591,-3.246201 -7.252788,-4.8694 -12.924722,-4.8694 H 31.999999 V 119.99997 H 44 Z M 54.730622,83.042919 c 1.150164,1.152953 1.72518,2.695817 1.72518,4.628725 0,1.947734 -0.50577,3.492493 -1.517245,4.634278 -1.108853,1.268685 -3.150624,1.902995 -6.125181,1.902995 H 44 V 81.313392 h 4.847081 c 2.772263,0 4.733443,0.57651 5.883541,1.729527 z"
       id="path486"
       style="stroke-width:0.999997"
       sodipodi:nodetypes="csccccscccccscsccsc" />
  </g>
  <rect
     style="fill:#fafafa;stroke-width:0;paint-order:markers fill stroke"
     id="rect343"
     width="180"
     height="180"
     x="-981.99994"
     y="-312" />
  <circle
     style="fill:#90a4ae;stroke-width:0;paint-order:markers fill stroke"
     id="circle345"
     cx="-891.99994"
     cy="-222"
     r="72.000008" />
  <g
     id="g353"
     transform="matrix(0.35294118,0,0,0.34375,-694.35294,-387)"
     style="stroke-width:2.87096">
    <path
       fill="#3d3d3d"
       d="m -479.76906,521.07462 9.82203,-24.8358 h 28.36004 L -455.0459,458.56426 -438.21311,416 -390,544 h -35.55543 l -8.23873,-22.9252 h -45.9749 z"
       id="path347"
       style="stroke-width:2.87095" />
    <path
       fill="#5a0fc8"
       d="m -510.10256,543.99992 51.61311,-127.99983 h -34.21772 l -35.30635,82.7165 -25.10636,-82.71633 h -26.3014 l -26.95754,82.71633 -19.01109,-37.69216 -17.20431,52.99885 17.4675,29.97664 h 33.67445 l 24.36035,-74.17875 23.22624,74.17875 z"
       id="path349"
       style="stroke-width:2.87095" />
    <path
       fill="#3d3d3d"
       d="m -696,500.05975 h 19.55679 c 6.38441,0 12.06948,-0.71251 17.05522,-2.13753 l 5.45062,-16.79093 15.23364,-46.92814 c -1.16074,-1.83971 -2.4859,-3.5791 -3.97549,-5.21799 -7.82157,-8.65654 -19.26522,-12.98507 -34.33129,-12.98507 H -730 v 127.99983 h 34 z m 26.37822,-54.61197 c 3.05512,3.07455 4.58251,7.18885 4.58251,12.34327 0,5.19396 -1.34346,9.31332 -4.03019,12.35808 -2.94539,3.38316 -8.36884,5.07465 -16.27001,5.07465 H -696 v -34.38807 h 10.75006 c 7.36382,0 12.57321,1.53736 15.62816,4.61207 z"
       id="path351"
       style="stroke-width:2.87095"
       sodipodi:nodetypes="csccccscccccscsccsc" />
  </g>
</svg>
