<?xml version="1.0" encoding="UTF-8" standalone="no"?>
<svg
   viewBox="0 0 96 33.132275"
   version="1.1"
   id="svg8"
   sodipodi:docname="pwa.svg"
   width="96"
   height="33.132275"
   inkscape:version="1.2.2 (732a01da63, 2022-12-09)"
   inkscape:export-filename="favicon.png"
   inkscape:export-xdpi="96"
   inkscape:export-ydpi="96"
   xml:space="preserve"
   xmlns:inkscape="http://www.inkscape.org/namespaces/inkscape"
   xmlns:sodipodi="http://sodipodi.sourceforge.net/DTD/sodipodi-0.dtd"
   xmlns="http://www.w3.org/2000/svg"
   xmlns:svg="http://www.w3.org/2000/svg"><defs
     id="defs4977" /><sodipodi:namedview
     id="namedview10"
     pagecolor="#ffffff"
     bordercolor="#999999"
     borderopacity="1"
     inkscape:showpageshadow="0"
     inkscape:pageopacity="0"
     inkscape:pagecheckerboard="0"
     inkscape:deskcolor="#d1d1d1"
     showgrid="false"
     inkscape:zoom="5.6568542"
     inkscape:cx="36.681164"
     inkscape:cy="19.180271"
     inkscape:window-width="1920"
     inkscape:window-height="1001"
     inkscape:window-x="2391"
     inkscape:window-y="-9"
     inkscape:window-maximized="1"
     inkscape:current-layer="svg8" /><path
     fill="#3d3d3d"
     d="m 70.653441,27.19813 2.773282,-6.428639 h 8.00754 L 77.634095,11.017583 82.386883,0 95.999997,33.132273 H 85.96082 l -2.326229,-5.934094 h -12.98115 z"
     id="a"
     style="stroke-width:0.899999" /><path
     fill="#5a0fc8"
     d="M 62.088689,33.132252 76.661803,2.3e-5 H 67.000326 L 57.031476,21.410846 49.942622,6.8e-5 h -7.426279 l -7.61154,21.410778 -5.367837,-9.756459 -4.857688,13.718534 4.932,7.759331 h 9.508081 l 6.878214,-19.200865 6.558001,19.200865 z"
     id="w"
     style="stroke-width:0.899999" /><path
     fill="#3d3d3d"
     d="m 9.1709504,21.75852 h 5.9509676 c 1.802655,0 3.407852,-0.184428 4.815589,-0.553292 l 1.539,-4.346262 L 25.77777,4.711811 C 25.450032,4.23561 25.075867,3.785376 24.655278,3.361155 22.446835,1.120445 19.215687,2.3e-5 14.961737,2.3e-5 H 0 V 33.132252 H 9.1709504 Z M 17.047966,7.622436 c 0.862622,0.795833 1.293885,1.860804 1.293885,3.195005 0,1.344435 -0.379328,2.410714 -1.137933,3.198837 -0.83164,0.875717 -2.362968,1.313553 -4.593887,1.313553 H 9.1709504 V 6.428622 H 12.63531 c 2.079197,0 3.550083,0.397939 4.412656,1.193814 z"
     id="p"
     style="stroke-width:0.899999" /></svg>
