<svg xmlns="http://www.w3.org/2000/svg" viewBox="0 0 128 48">
  <path fill="#3d3d3d" d="m94.205 39.403 3.697-9.313h10.677l-5.067-14.128L109.85 0 128 48h-13.386l-3.101-8.597H94.205z"/>
  <path fill="#5a0fc8" d="m82.785 48 19.43-48H89.335L76.042 31.019 66.59 0h-9.902L46.54 31.02l-7.157-14.135-6.477 19.875L39.482 48h12.677l9.171-27.817L70.074 48z"/>
  <path fill="#3d3d3d" d="M12 31.522h8.163c2.403 0 4.543-.267 6.42-.801l2.052-6.297L34.37 6.826a14.067 14.067 0 0 0-1.496-1.957C29.929 1.623 25.62 0 19.949 0H0v48h12Zm10.73-20.48c1.15 1.154 1.726 2.697 1.726 4.63 0 1.947-.506 3.492-1.517 4.634-1.11 1.269-3.151 1.903-6.126 1.903H12V9.313h4.847c2.772 0 4.734.577 5.884 1.73z"/>
</svg>
